<svg width="46" height="49" viewBox="0 0 46 49" fill="none" xmlns="http://www.w3.org/2000/svg">
<path d="M29.2106 34.4987C26.0793 33.7619 23.3164 36.3406 23.1322 39.8403C23.1322 41.1297 21.2902 40.9455 21.4744 39.8403C21.6586 34.6829 24.7899 32.841 28.8422 32.4726C28.8422 32.4726 29.3948 31.92 30.1315 31.3674L33.6312 8.89575C34.1838 4.84348 28.8422 4.4751 28.1054 7.97478L26.0793 21.6051C27.0002 21.7893 27.737 22.1577 28.658 22.3419C29.3948 22.7103 28.658 24.368 27.9212 24.1838C25.3425 23.0787 22.5796 22.7103 19.8167 22.7103C18.8957 22.8945 18.7115 20.8684 19.6325 20.8684C20.7377 20.8684 21.6586 20.8684 22.7638 21.0526C22.7638 15.7109 22.027 9.81672 21.8428 4.65929C21.6586 1.52799 16.1328 1.89638 16.317 5.02768L17.0538 20.5V32.841C17.0538 36.3406 10.7912 36.709 8.76505 34.6829C7.2915 36.1565 4.1602 36.1565 2.50245 35.4197C3.976 49.971 29.2106 50.5236 32.8945 37.4458C33.0787 37.2616 42.1042 30.6306 42.8409 29.8939C38.2361 23.6313 34.368 30.999 29.2106 34.4987ZM32.1577 29.7097C38.0519 24.368 40.8148 23.9997 45.4196 30.0781C42.2883 32.841 37.3151 36.3406 34.368 38.9194C29.0264 53.2865 0.476318 51.6287 0.476318 34.1303C0.476318 29.5255 0.476318 24.9206 0.476318 20.5C0.476318 16.8161 6.55472 16.4477 8.76505 18.4738C10.2386 17.0003 13.3699 17.0003 15.2118 17.9213L14.4751 5.02768C14.1067 -0.49814 23.3164 -1.05072 23.6848 4.4751L24.4215 19.9474L26.4477 7.79059C27.3686 1.89638 36.3941 2.63316 35.4732 9.26414L32.1577 29.7097ZM2.31826 33.0252C2.68665 34.4987 7.84408 34.4987 7.84408 32.841V20.5C7.84408 18.658 2.31826 18.658 2.31826 20.5C2.31826 24.5522 2.31826 28.7887 2.31826 33.0252ZM15.2118 32.841V20.5C15.2118 18.658 9.68602 18.658 9.68602 20.5V32.841C9.68602 34.4987 15.2118 34.4987 15.2118 32.841Z" fill="#EE58B6"/>
</svg>
