<svg width="41" height="49" viewBox="0 0 41 49" fill="none" xmlns="http://www.w3.org/2000/svg">
<path d="M40.442 33.9723C40.442 53.0722 6.06215 53.7998 6.06215 33.0628L1.15074 13.0533C-0.304489 6.8686 8.4269 4.68575 9.88214 10.8705L12.065 19.2381L10.4278 8.14193C9.70023 1.59338 18.6135 0.320054 19.523 6.8686L20.7964 17.419V5.77717C20.7964 -1.31708 29.8916 -1.31708 29.8916 5.77717V18.6924L31.5287 7.41431C32.4382 1.22957 41.3515 2.5029 40.442 8.68764L38.2592 23.6038C41.3515 25.2409 40.442 31.0618 40.442 33.9723ZM7.88119 32.5171C8.4269 52.1627 38.623 50.1618 38.623 33.9723C38.623 22.8762 39.8963 25.059 26.0716 25.059C26.0716 31.6075 26.2535 29.7885 33.3478 30.5161C34.803 30.5161 34.2573 32.699 34.2573 33.4266C34.2573 35.6094 28.8002 33.0628 28.6182 39.7932C28.4363 40.8847 26.7992 40.8847 26.7992 39.6113C26.9811 35.9732 28.8002 33.4266 32.4382 32.699V32.3352C23.5249 32.3352 24.2526 31.0618 24.2526 23.24C28.4363 23.24 32.4382 23.0581 36.4401 23.24L38.623 8.50573C39.3506 4.68575 33.8935 3.77623 33.3478 7.77812L31.1649 22.3304C30.0735 22.3304 29.164 22.3304 28.0725 22.3304V5.77717C28.0725 1.22957 22.6154 1.22957 22.6154 5.77717V22.1485C21.7059 22.1485 20.6145 22.1485 19.705 22.3304L17.704 7.23241C17.1583 3.04861 11.7012 3.77623 12.2469 7.96002L14.4297 23.4219C13.3383 23.7857 12.4288 23.9676 11.3374 24.1495L8.0631 11.2343C7.15358 7.59621 1.87836 8.86954 2.96978 12.6895L7.88119 32.5171Z" fill="#EE58B6"/>
</svg>
