<svg width="165" height="26" viewBox="0 0 165 26" fill="none" xmlns="http://www.w3.org/2000/svg">
<path d="M0.559342 3.41519H10.365C12.7085 3.41519 14.7745 3.86744 16.5629 4.77195C18.372 5.6559 19.7698 6.90987 20.7566 8.53387C21.7639 10.1579 22.2675 12.0491 22.2675 14.2076C22.2675 16.3661 21.7639 18.2573 20.7566 19.8813C19.7698 21.5053 18.372 22.7696 16.5629 23.6741C14.7745 24.558 12.7085 25 10.365 25H0.559342V3.41519ZM10.1183 20.8989C12.2768 20.8989 13.9933 20.3027 15.2678 19.1104C16.5629 17.8976 17.2105 16.2633 17.2105 14.2076C17.2105 12.1519 16.5629 10.5279 15.2678 9.33559C13.9933 8.12273 12.2768 7.5163 10.1183 7.5163H5.55468V20.8989H10.1183ZM32.2018 25.2467C30.4545 25.2467 28.8819 24.8869 27.484 24.1674C26.1067 23.4274 25.0274 22.4098 24.2463 21.1147C23.4651 19.8196 23.0745 18.3498 23.0745 16.7053C23.0745 15.0607 23.4651 13.5909 24.2463 12.2958C25.0274 11.0007 26.1067 9.99342 27.484 9.27392C28.8819 8.53387 30.4545 8.16385 32.2018 8.16385C33.9491 8.16385 35.5115 8.53387 36.8888 9.27392C38.2661 9.99342 39.3454 11.0007 40.1265 12.2958C40.9077 13.5909 41.2983 15.0607 41.2983 16.7053C41.2983 18.3498 40.9077 19.8196 40.1265 21.1147C39.3454 22.4098 38.2661 23.4274 36.8888 24.1674C35.5115 24.8869 33.9491 25.2467 32.2018 25.2467ZM32.2018 21.2997C33.4352 21.2997 34.4425 20.8886 35.2237 20.0663C36.0254 19.2235 36.4263 18.1031 36.4263 16.7053C36.4263 15.3074 36.0254 14.1973 35.2237 13.375C34.4425 12.5322 33.4352 12.1108 32.2018 12.1108C30.9684 12.1108 29.9508 12.5322 29.1491 13.375C28.3474 14.1973 27.9465 15.3074 27.9465 16.7053C27.9465 18.1031 28.3474 19.2235 29.1491 20.0663C29.9508 20.8886 30.9684 21.2997 32.2018 21.2997ZM53.2092 8.16385C55.2649 8.16385 56.9197 8.78056 58.1737 10.014C59.4482 11.2474 60.0855 13.077 60.0855 15.5027V25H55.2752V16.2427C55.2752 14.9271 54.9874 13.9506 54.4118 13.3134C53.8362 12.6555 53.0036 12.3266 51.9141 12.3266C50.7012 12.3266 49.735 12.7069 49.0156 13.4675C48.2961 14.2076 47.9363 15.3177 47.9363 16.7978V25H43.126V8.41053H47.7205V10.3532C48.3577 9.65423 49.1492 9.11975 50.0948 8.74972C51.0404 8.35914 52.0785 8.16385 53.2092 8.16385ZM63.5516 1.84258H68.7319L72.8947 6.28288H69.1328L63.5516 1.84258ZM90.8597 24.1983C90.3869 24.5477 89.8011 24.815 89.1021 25C88.4237 25.1645 87.7042 25.2467 86.9436 25.2467C84.9702 25.2467 83.4387 24.743 82.3492 23.7357C81.2802 22.7285 80.7457 21.2484 80.7457 19.2954V12.4808H78.1864V8.78056H80.7457V4.74111H85.556V8.78056H89.688V12.4808H85.556V19.2338C85.556 19.9327 85.7308 20.4775 86.0802 20.8681C86.4503 21.2381 86.9642 21.4231 87.622 21.4231C88.3826 21.4231 89.0302 21.2175 89.5646 20.8064L90.8597 24.1983ZM145.643 8.41053H150.453V25H145.643V8.41053ZM148.048 6.09787C147.164 6.09787 146.445 5.84091 145.89 5.32699C145.335 4.81306 145.057 4.1758 145.057 3.41519C145.057 2.65458 145.335 2.01731 145.89 1.50339C146.445 0.989467 147.164 0.732504 148.048 0.732504C148.932 0.732504 149.652 0.979188 150.207 1.47256C150.762 1.96592 151.039 2.58263 151.039 3.32268C151.039 4.1244 150.762 4.79251 150.207 5.32699C149.652 5.84091 148.932 6.09787 148.048 6.09787ZM164.23 24.1983C163.757 24.5477 163.171 24.815 162.472 25C161.794 25.1645 161.075 25.2467 160.314 25.2467C158.34 25.2467 156.809 24.743 155.719 23.7357C154.65 22.7285 154.116 21.2484 154.116 19.2954V12.4808H151.557V8.78056H154.116V4.74111H158.926V8.78056H163.058V12.4808H158.926V19.2338C158.926 19.9327 159.101 20.4775 159.451 20.8681C159.821 21.2381 160.334 21.4231 160.992 21.4231C161.753 21.4231 162.4 21.2175 162.935 20.8064L164.23 24.1983Z" fill="black"/>
<path d="M116.415 2.1201V25H111.821V23.0882C110.629 24.5272 108.902 25.2467 106.64 25.2467C105.078 25.2467 103.66 24.8972 102.385 24.1983C101.131 23.4993 100.144 22.5023 99.425 21.2072C98.7055 19.9122 98.3458 18.4115 98.3458 16.7053C98.3458 14.999 98.7055 13.4984 99.425 12.2033C100.144 10.9082 101.131 9.91119 102.385 9.21225C103.66 8.51332 105.078 8.16385 106.64 8.16385C108.758 8.16385 110.413 8.83195 111.605 10.1682V2.1201H116.415ZM107.473 21.2997C108.686 21.2997 109.693 20.8886 110.495 20.0663C111.297 19.2235 111.698 18.1031 111.698 16.7053C111.698 15.3074 111.297 14.1973 110.495 13.375C109.693 12.5322 108.686 12.1108 107.473 12.1108C106.24 12.1108 105.222 12.5322 104.42 13.375C103.619 14.1973 103.218 15.3074 103.218 16.7053C103.218 18.1031 103.619 19.2235 104.42 20.0663C105.222 20.8886 106.24 21.2997 107.473 21.2997ZM127.374 25.2467C125.626 25.2467 124.054 24.8869 122.656 24.1674C121.279 23.4274 120.199 22.4098 119.418 21.1147C118.637 19.8196 118.246 18.3498 118.246 16.7053C118.246 15.0607 118.637 13.5909 119.418 12.2958C120.199 11.0007 121.279 9.99342 122.656 9.27392C124.054 8.53387 125.626 8.16385 127.374 8.16385C129.121 8.16385 130.683 8.53387 132.061 9.27392C133.438 9.99342 134.517 11.0007 135.298 12.2958C136.08 13.5909 136.47 15.0607 136.47 16.7053C136.47 18.3498 136.08 19.8196 135.298 21.1147C134.517 22.4098 133.438 23.4274 132.061 24.1674C130.683 24.8869 129.121 25.2467 127.374 25.2467ZM127.374 21.2997C128.607 21.2997 129.614 20.8886 130.396 20.0663C131.197 19.2235 131.598 18.1031 131.598 16.7053C131.598 15.3074 131.197 14.1973 130.396 13.375C129.614 12.5322 128.607 12.1108 127.374 12.1108C126.14 12.1108 125.123 12.5322 124.321 13.375C123.519 14.1973 123.118 15.3074 123.118 16.7053C123.118 18.1031 123.519 19.2235 124.321 20.0663C125.123 20.8886 126.14 21.2997 127.374 21.2997Z" fill="#EE58B6"/>
</svg>
