<svg width="39" height="49" viewBox="0 0 39 49" fill="none" xmlns="http://www.w3.org/2000/svg">
<path d="M34.1318 5.74479V21.6304C35.3085 21.8265 36.2891 22.2187 36.8775 22.8071C38.6425 24.9644 38.0542 30.848 38.0542 33.0053C38.0542 53.7938 0.987793 53.7938 0.987793 33.0053C0.987793 28.2984 0.987793 23.3955 0.987793 18.4925C0.987793 14.9624 7.26358 14.1779 9.81312 16.5313C11.5782 14.7662 15.5006 14.7662 17.4617 16.3352C19.0307 14.7662 22.1686 14.5701 24.3259 15.5507V5.74479C24.3259 -1.11936 34.1318 -1.11936 34.1318 5.74479ZM32.1706 21.2382V5.74479C32.1706 1.6263 26.2871 1.6263 26.2871 5.74479V21.2382C28.2483 21.2382 30.4056 21.2382 32.1706 21.2382ZM24.3259 21.2382V18.2964C24.3259 16.5313 18.6385 16.5313 18.4423 18.2964C18.6385 23.7877 18.6385 27.7101 18.6385 31.6324C18.8346 33.2014 24.3259 33.7897 24.3259 31.0441C19.619 29.8674 20.5996 25.7489 20.5996 21.4343C21.3841 21.4343 22.7569 21.4343 24.3259 21.2382ZM26.2871 31.2402C26.2871 35.1626 20.2074 35.7509 17.6579 33.7897C15.8928 35.5548 11.5782 35.5548 9.81312 33.7897C8.24418 35.1626 5.10628 35.5548 3.1451 34.5742C4.71404 51.2443 36.093 50.6559 36.093 33.0053C36.093 31.6324 36.4852 25.3566 35.3085 24.1799C34.1318 22.8071 24.3259 23.3955 22.5608 23.3955C22.5608 25.945 21.9725 29.0829 25.3065 29.279H30.4056C32.5629 29.279 32.5629 33.5936 30.6017 33.5936C27.0716 33.7897 25.3065 35.7509 25.1104 39.2811C25.1104 40.4578 23.1492 40.4578 23.3453 39.2811C23.3453 35.1626 25.5026 32.4169 29.425 31.6324V31.2402H26.2871ZM2.94898 32.0247C3.34121 33.5936 8.83253 33.5936 8.83253 31.8285V18.4925C8.83253 16.9235 2.94898 16.7274 2.94898 18.4925C2.94898 23.0032 2.94898 27.5139 2.94898 32.0247ZM16.6773 31.8285C16.4812 28.8868 16.4812 22.611 16.4812 18.4925C16.285 16.7274 10.7937 16.7274 10.7937 18.4925V31.8285C10.7937 33.5936 16.4812 33.5936 16.6773 31.8285Z" fill="#EE58B6"/>
</svg>
