<svg width="36" height="49" viewBox="0 0 36 49" fill="none" xmlns="http://www.w3.org/2000/svg">
<path d="M35.7483 9.25712L33.3557 23.6126C36.4845 25.269 35.5642 31.1584 35.5642 34.1032C35.5642 53.4279 0.779785 53.4279 0.779785 34.1032C0.779785 29.502 0.779785 24.9009 0.779785 20.4838C0.779785 16.803 6.85326 16.4349 9.0618 18.4594C10.5342 16.987 13.6629 16.987 15.5034 17.9072L14.7672 5.02409C14.3991 -0.497253 23.6013 -1.04939 23.9694 4.47195L24.7056 19.9317L26.7301 7.78476C27.6503 1.89533 36.6685 2.63151 35.7483 9.25712ZM21.0247 24.9009C21.0247 32.0787 22.4971 29.8701 28.3865 30.4223C28.9386 30.4223 29.3067 30.7903 29.3067 31.3425V33.551C29.3067 35.2074 23.7854 33.367 23.4173 39.8085C23.4173 41.0969 21.5768 40.9128 21.7609 39.8085C21.7609 35.9436 23.7854 33.367 27.4663 32.6308V32.2627C19.0002 32.6308 19.1843 31.3425 19.1843 23.0605C20.4726 23.0605 21.7609 23.0605 23.0492 23.0605C23.0492 17.171 22.313 10.5454 22.129 4.656C21.9449 1.52724 16.4236 1.89533 16.6076 5.02409L17.3438 22.6924V32.8148C17.3438 36.3117 11.0863 36.6798 9.0618 34.6553C7.58944 36.1276 4.46068 36.1276 2.80428 35.3915C4.27664 51.0353 33.7238 50.4831 33.7238 34.1032C33.9078 23.2445 33.7238 24.9009 21.0247 24.9009ZM2.62023 32.9989C2.98832 34.4712 8.14157 34.4712 8.14157 32.8148V20.4838C8.14157 18.6434 2.62023 18.6434 2.62023 20.4838C2.62023 24.5328 2.62023 28.7659 2.62023 32.9989ZM26.178 23.0605C28.0184 23.0605 29.8589 23.0605 31.6993 23.0605L33.9078 8.88903C34.46 4.84004 29.1227 4.47195 28.3865 7.9688L26.178 23.0605ZM15.5034 32.8148V20.4838C15.5034 18.6434 9.98202 18.6434 9.98202 20.4838V32.8148C9.98202 34.4712 15.5034 34.4712 15.5034 32.8148Z" fill="#EE58B6"/>
</svg>
