<svg width="36" height="49" viewBox="0 0 36 49" fill="none" xmlns="http://www.w3.org/2000/svg">
<path d="M35.7348 33.9723C35.7348 53.0722 1.53685 53.7998 1.53685 33.0628C0.627333 29.4247 -0.464091 27.2418 1.90066 24.6952C3.5378 23.0581 4.99303 21.9666 7.72159 22.3304C7.17588 17.7828 6.44826 12.8714 5.90255 8.14193C4.99303 1.59338 13.9063 0.320054 14.8158 6.8686L16.2711 17.419V5.77717C16.2711 -1.31708 25.1844 -1.31708 25.1844 5.77717V18.6924L27.0034 7.41431C27.9129 1.22957 36.8262 2.5029 35.9167 8.68764L33.552 23.6038C36.8262 25.2409 35.7348 31.0618 35.7348 33.9723ZM7.17588 23.9676C5.53874 23.6038 1.90066 26.878 2.26447 28.3333L15.1797 30.5161C19.1815 31.2437 20.0911 25.9685 16.0892 25.2409L7.17588 23.9676ZM2.81018 30.3342L3.35589 32.5171C3.9016 52.1627 33.9158 50.1618 33.9158 33.9723C33.9158 22.8762 35.1891 25.059 21.5463 25.059C21.5463 31.6075 21.7282 29.7885 28.8225 30.5161C30.0958 30.5161 29.732 32.699 29.732 33.4266C29.732 35.6094 24.2749 33.0628 23.911 39.7932C23.911 40.8847 22.092 40.8847 22.092 39.6113C22.2739 35.9732 24.093 33.4266 27.9129 32.699V32.3352C22.6377 32.3352 20.6368 31.7894 20.0911 29.7885C19.3634 31.6075 17.5444 32.8809 14.9977 32.3352L2.81018 30.3342ZM19.7273 25.4228C19.7273 24.6952 19.7273 23.9676 19.7273 23.24C23.7291 23.24 27.9129 23.0581 31.9148 23.24L34.0977 8.50573C34.6434 4.68575 29.3682 3.77623 28.8225 7.77812L26.6396 22.3304C25.5482 22.3304 24.4568 22.3304 23.3653 22.3304V5.77717C23.3653 1.22957 18.0901 1.22957 18.0901 5.77717V22.1485C16.9987 22.1485 16.0892 22.1485 14.9977 22.3304L12.9968 7.23241C12.4511 3.04861 7.17588 3.77623 7.72159 7.96002C8.2673 12.6895 8.99492 17.6009 9.72253 22.5123C14.9978 23.24 19.1815 23.0581 19.7273 25.4228Z" fill="#EE58B6"/>
</svg>
