<svg width="167" height="48" viewBox="0 0 167 48" fill="none" xmlns="http://www.w3.org/2000/svg">
<path d="M2.55934 13.4152H12.365C14.7085 13.4152 16.7745 13.8674 18.5629 14.7719C20.372 15.6559 21.7698 16.9099 22.7566 18.5339C23.7639 20.1579 24.2675 22.0491 24.2675 24.2076C24.2675 26.3661 23.7639 28.2573 22.7566 29.8813C21.7698 31.5053 20.372 32.7696 18.5629 33.6741C16.7745 34.558 14.7085 35 12.365 35H2.55934V13.4152ZM12.1183 30.8989C14.2768 30.8989 15.9933 30.3027 17.2678 29.1104C18.5629 27.8976 19.2105 26.2633 19.2105 24.2076C19.2105 22.1519 18.5629 20.5279 17.2678 19.3356C15.9933 18.1227 14.2768 17.5163 12.1183 17.5163H7.55468V30.8989H12.1183ZM34.2018 35.2467C32.4545 35.2467 30.8819 34.8869 29.484 34.1674C28.1067 33.4274 27.0274 32.4098 26.2463 31.1147C25.4651 29.8196 25.0745 28.3498 25.0745 26.7053C25.0745 25.0607 25.4651 23.5909 26.2463 22.2958C27.0274 21.0007 28.1067 19.9934 29.484 19.2739C30.8819 18.5339 32.4545 18.1638 34.2018 18.1638C35.9491 18.1638 37.5115 18.5339 38.8888 19.2739C40.2661 19.9934 41.3454 21.0007 42.1265 22.2958C42.9077 23.5909 43.2983 25.0607 43.2983 26.7053C43.2983 28.3498 42.9077 29.8196 42.1265 31.1147C41.3454 32.4098 40.2661 33.4274 38.8888 34.1674C37.5115 34.8869 35.9491 35.2467 34.2018 35.2467ZM34.2018 31.2997C35.4352 31.2997 36.4425 30.8886 37.2237 30.0663C38.0254 29.2235 38.4263 28.1031 38.4263 26.7053C38.4263 25.3074 38.0254 24.1973 37.2237 23.375C36.4425 22.5322 35.4352 22.1108 34.2018 22.1108C32.9684 22.1108 31.9508 22.5322 31.1491 23.375C30.3474 24.1973 29.9465 25.3074 29.9465 26.7053C29.9465 28.1031 30.3474 29.2235 31.1491 30.0663C31.9508 30.8886 32.9684 31.2997 34.2018 31.2997ZM55.2092 18.1638C57.2649 18.1638 58.9197 18.7806 60.1737 20.014C61.4482 21.2474 62.0855 23.077 62.0855 25.5027V35H57.2752V26.2427C57.2752 24.9271 56.9874 23.9506 56.4118 23.3134C55.8362 22.6555 55.0036 22.3266 53.9141 22.3266C52.7012 22.3266 51.735 22.7069 51.0156 23.4675C50.2961 24.2076 49.9363 25.3177 49.9363 26.7978V35H45.126V18.4105H49.7205V20.3532C50.3577 19.6542 51.1492 19.1197 52.0948 18.7497C53.0404 18.3591 54.0785 18.1638 55.2092 18.1638ZM65.5516 11.8426H70.7319L74.8947 16.2829H71.1328L65.5516 11.8426ZM92.8597 34.1983C92.3869 34.5477 91.8011 34.815 91.1021 35C90.4237 35.1645 89.7042 35.2467 88.9436 35.2467C86.9702 35.2467 85.4387 34.743 84.3492 33.7357C83.2802 32.7285 82.7457 31.2484 82.7457 29.2954V22.4808H80.1864V18.7806H82.7457V14.7411H87.556V18.7806H91.688V22.4808H87.556V29.2338C87.556 29.9327 87.7308 30.4775 88.0802 30.8681C88.4503 31.2381 88.9642 31.4231 89.622 31.4231C90.3826 31.4231 91.0302 31.2175 91.5646 30.8064L92.8597 34.1983ZM147.643 18.4105H152.453V35H147.643V18.4105ZM150.048 16.0979C149.164 16.0979 148.445 15.8409 147.89 15.327C147.335 14.8131 147.057 14.1758 147.057 13.4152C147.057 12.6546 147.335 12.0173 147.89 11.5034C148.445 10.9895 149.164 10.7325 150.048 10.7325C150.932 10.7325 151.652 10.9792 152.207 11.4726C152.762 11.9659 153.039 12.5826 153.039 13.3227C153.039 14.1244 152.762 14.7925 152.207 15.327C151.652 15.8409 150.932 16.0979 150.048 16.0979ZM166.23 34.1983C165.757 34.5477 165.171 34.815 164.472 35C163.794 35.1645 163.075 35.2467 162.314 35.2467C160.34 35.2467 158.809 34.743 157.719 33.7357C156.65 32.7285 156.116 31.2484 156.116 29.2954V22.4808H153.557V18.7806H156.116V14.7411H160.926V18.7806H165.058V22.4808H160.926V29.2338C160.926 29.9327 161.101 30.4775 161.451 30.8681C161.821 31.2381 162.334 31.4231 162.992 31.4231C163.753 31.4231 164.4 31.2175 164.935 30.8064L166.23 34.1983Z" fill="white"/>
<path d="M118.415 12.1201V35H113.821V33.0882C112.629 34.5272 110.902 35.2467 108.64 35.2467C107.078 35.2467 105.66 34.8972 104.385 34.1983C103.131 33.4993 102.144 32.5023 101.425 31.2072C100.706 29.9122 100.346 28.4115 100.346 26.7053C100.346 24.999 100.706 23.4984 101.425 22.2033C102.144 20.9082 103.131 19.9112 104.385 19.2123C105.66 18.5133 107.078 18.1638 108.64 18.1638C110.758 18.1638 112.413 18.8319 113.605 20.1682V12.1201H118.415ZM109.473 31.2997C110.686 31.2997 111.693 30.8886 112.495 30.0663C113.297 29.2235 113.698 28.1031 113.698 26.7053C113.698 25.3074 113.297 24.1973 112.495 23.375C111.693 22.5322 110.686 22.1108 109.473 22.1108C108.24 22.1108 107.222 22.5322 106.42 23.375C105.619 24.1973 105.218 25.3074 105.218 26.7053C105.218 28.1031 105.619 29.2235 106.42 30.0663C107.222 30.8886 108.24 31.2997 109.473 31.2997ZM129.374 35.2467C127.626 35.2467 126.054 34.8869 124.656 34.1674C123.279 33.4274 122.199 32.4098 121.418 31.1147C120.637 29.8196 120.246 28.3498 120.246 26.7053C120.246 25.0607 120.637 23.5909 121.418 22.2958C122.199 21.0007 123.279 19.9934 124.656 19.2739C126.054 18.5339 127.626 18.1638 129.374 18.1638C131.121 18.1638 132.683 18.5339 134.061 19.2739C135.438 19.9934 136.517 21.0007 137.298 22.2958C138.08 23.5909 138.47 25.0607 138.47 26.7053C138.47 28.3498 138.08 29.8196 137.298 31.1147C136.517 32.4098 135.438 33.4274 134.061 34.1674C132.683 34.8869 131.121 35.2467 129.374 35.2467ZM129.374 31.2997C130.607 31.2997 131.614 30.8886 132.396 30.0663C133.197 29.2235 133.598 28.1031 133.598 26.7053C133.598 25.3074 133.197 24.1973 132.396 23.375C131.614 22.5322 130.607 22.1108 129.374 22.1108C128.14 22.1108 127.123 22.5322 126.321 23.375C125.519 24.1973 125.118 25.3074 125.118 26.7053C125.118 28.1031 125.519 29.2235 126.321 30.0663C127.123 30.8886 128.14 31.2997 129.374 31.2997Z" fill="#EE58B6"/>
</svg>
