<svg width="51" height="49" viewBox="0 0 51 49" fill="none" xmlns="http://www.w3.org/2000/svg">
<path d="M5.85425 33.0635L0.942739 13.0536C-0.512525 6.86874 8.21906 4.68584 9.67432 10.8707L11.8572 19.2385L10.22 8.14209C9.49241 1.59341 18.4059 0.320051 19.3154 6.86874L20.5888 17.4194V5.77729C20.5888 -1.31712 29.6842 -1.31712 29.6842 5.77729V18.6928L31.3214 7.41446C32.2309 1.22959 41.1444 2.50295 40.2349 8.68782C39.3253 15.7822 38.2339 22.6947 37.1424 29.6072C42.7816 24.15 45.5102 23.7862 50.2398 29.7891C47.3293 32.5178 42.4178 36.1559 39.5072 38.7026C34.5957 52.5276 5.85425 52.5276 5.85425 33.0635ZM38.4158 8.50591C39.1434 4.68584 33.6862 3.7763 33.1405 7.77828L30.9576 22.3309C29.8661 22.3309 28.9566 22.3309 27.8651 22.3309V5.77729C27.8651 1.22959 22.4079 1.22959 22.4079 5.77729V22.149C21.4983 22.149 20.4069 22.149 19.4974 22.3309L17.4964 7.23255C16.9506 3.04867 11.4934 3.7763 12.0391 7.96019L14.222 23.4224C13.1306 23.7862 12.221 23.9681 11.1296 24.15L7.85524 11.2345C6.9457 7.59637 1.67037 8.86973 2.76182 12.6898L7.67333 32.5178C8.21906 51.8 34.7776 49.6171 38.052 37.0655C38.052 36.8836 46.9655 30.3349 47.6931 29.6072C43.1454 23.6043 39.3253 30.6987 34.4138 34.3368C31.1395 33.7911 28.5928 36.1559 28.4108 39.6122C28.4108 40.8855 26.5918 40.8855 26.5918 39.6122C26.7737 34.7007 29.8661 32.6997 33.8681 32.3359C34.05 32.3359 34.4138 31.7901 35.1414 31.2444C36.2329 23.7862 37.3243 16.146 38.4158 8.50591Z" fill="#EE58B6"/>
</svg>
