<svg width="44" height="53" viewBox="0 0 44 53" fill="none" xmlns="http://www.w3.org/2000/svg">
<path d="M39.5307 0.423218H8.78815C6.7278 0.423218 5.0513 2.09972 5.0513 4.16006V9.45024H1.31506C0.819401 9.45024 0.418213 9.85143 0.418213 10.3471C0.418213 10.8427 0.819401 11.2439 1.31506 11.2439H5.0513V17.4459H1.31506C0.819401 17.4459 0.418213 17.8471 0.418213 18.3427C0.418213 18.8384 0.819401 19.2396 1.31506 19.2396H5.0513V25.4416H1.31506C0.819401 25.4416 0.418213 25.8427 0.418213 26.3384C0.418213 26.8335 0.819401 27.2352 1.31506 27.2352H5.0513V33.4366H1.31506C0.819401 33.4366 0.418213 33.8384 0.418213 34.3335C0.418213 34.8285 0.819401 35.2303 1.31506 35.2303H5.0513V40.8338H1.31506C0.819401 40.8338 0.418213 41.2356 0.418213 41.7306C0.418213 42.2257 0.819401 42.6275 1.31506 42.6275H5.0513V48.8234C5.0513 50.8838 6.7278 52.5603 8.78815 52.5603H33.1177C33.1195 52.5603 33.1213 52.5609 33.1237 52.5609C33.1261 52.5609 33.1273 52.5603 33.1297 52.5603H39.5313C41.5917 52.5603 43.2682 50.8838 43.2682 48.8234V4.16006C43.2676 2.09972 41.5911 0.423218 39.5307 0.423218ZM6.84499 48.8234V42.6275H10.4401C10.9358 42.6275 11.337 42.2257 11.337 41.7306C11.337 41.2356 10.9358 40.8338 10.4401 40.8338H6.84499V35.2303H10.4401C10.9358 35.2303 11.337 34.8285 11.337 34.3335C11.337 33.8384 10.9358 33.4366 10.4401 33.4366H6.84499V27.2346H10.4401C10.9358 27.2346 11.337 26.8329 11.337 26.3378C11.337 25.8421 10.9358 25.441 10.4401 25.441H6.84499V19.2396H10.4401C10.9358 19.2396 11.337 18.8384 11.337 18.3427C11.337 17.8471 10.9358 17.4459 10.4401 17.4459H6.84499V11.2439H10.4401C10.9358 11.2439 11.337 10.8427 11.337 10.3471C11.337 9.85143 10.9358 9.45024 10.4401 9.45024H6.84499V4.16006C6.84499 3.08864 7.71672 2.2169 8.78815 2.2169H32.2262V50.7666H8.78815C7.71672 50.7666 6.84499 49.8949 6.84499 48.8234ZM41.4739 48.8234C41.4739 49.8949 40.6022 50.7666 39.5307 50.7666H34.0199V2.2169H39.5307C40.6022 2.2169 41.4739 3.08864 41.4739 4.16006V48.8234Z" fill="#EE58B6"/>
</svg>
