<svg width="53" height="53" viewBox="0 0 53 53" fill="none" xmlns="http://www.w3.org/2000/svg">
<path d="M26.95 0.932983C12.6346 0.932983 0.98877 12.5794 0.98877 26.8942C0.98877 41.2096 12.6352 52.8554 26.95 52.8554C41.2648 52.8554 52.9112 41.209 52.9112 26.8942C52.9106 12.5794 41.2648 0.932983 26.95 0.932983ZM26.0531 51.0396C13.4393 50.5756 3.26795 40.4042 2.80458 27.791H9.94883C10.4014 36.4665 17.3777 43.4427 26.0531 43.8954V51.0396ZM26.0531 42.0969C18.3678 41.6485 12.1963 35.4764 11.7473 27.791H19.273C19.685 31.339 22.5052 34.1586 26.0531 34.5712V42.0969ZM26.0531 32.7584C23.4965 32.3685 21.4757 30.3476 21.0858 27.791H26.0531V32.7584ZM21.0852 25.9974C21.4751 23.4408 23.4959 21.4199 26.0525 21.03V25.9974H21.0852ZM26.0531 19.2172C22.5052 19.6298 19.6856 22.4494 19.273 25.9974H11.7473C12.1963 18.312 18.3678 12.1405 26.0531 11.6921V19.2172ZM26.0531 9.89364C17.3777 10.3462 10.4014 17.3225 9.94883 25.9974H2.80458C3.26795 13.3842 13.4393 3.21276 26.0531 2.74939V9.89364ZM27.8462 2.74939C40.46 3.21276 50.6314 13.3842 51.0942 25.9974H43.9499C43.4973 17.3225 36.5211 10.3462 27.8462 9.89364V2.74939ZM32.8141 27.791C32.4243 30.3476 30.4034 32.3685 27.8468 32.7584V27.791H32.8141ZM27.8468 25.9974V21.03C30.4034 21.4199 32.4243 23.4408 32.8141 25.9974H27.8468ZM34.627 27.791H42.1527C41.7043 35.4764 35.5322 41.6479 27.8474 42.0969L27.8468 34.5712C31.3947 34.1586 34.2144 31.339 34.627 27.791ZM27.8462 11.6915C35.5316 12.1405 41.7031 18.312 42.1515 25.9968H34.6264V25.9974C34.2138 22.4494 31.3941 19.6298 27.8462 19.2172V11.6915ZM27.8468 51.039V43.8948C36.5217 43.4422 43.4979 36.4659 43.9505 27.7904H51.0948C50.6314 40.4042 40.46 50.5756 27.8468 51.039Z" fill="#EE58B6"/>
</svg>
