<svg width="322" height="307" viewBox="0 0 322 307" fill="none" xmlns="http://www.w3.org/2000/svg">
<path fill-rule="evenodd" clip-rule="evenodd" d="M166.268 266.416C221.363 266.416 229.173 241.905 237.527 237.401C245.881 232.897 240.688 223.857 246.166 217.04C254.918 206.15 260.222 211.762 263.118 197.634C266.015 183.507 260.749 179.51 260.749 166.897C260.749 141.626 272.855 129.664 257.396 116.442C241.936 103.22 216.121 104.78 190.588 104.78C143.197 104.78 114.806 39.8143 51.5977 59.3048C29.8148 66.0216 32.2223 75.175 37.0086 107.523C39.087 121.57 23.3939 139.43 26.1168 155.393C31.0897 184.547 44.2234 180.593 69.0037 200.277C73.161 203.579 79.2244 203.545 83.7565 206.932C91.3547 212.61 91.8432 221.44 106.048 227.395C128.953 236.998 127.01 266.416 166.268 266.416Z" fill="#EE58B6"/>
<ellipse cx="60.9408" cy="191.159" rx="13.9295" ry="13.0987" fill="white"/>
<path fill-rule="evenodd" clip-rule="evenodd" d="M55.4781 144.456C53.1035 138.526 55.1778 134.973 56.5074 130.334C57.618 126.46 66.3034 120.166 70.3007 126.729C71.4767 128.659 71.0049 130.484 73.5751 132.181C79.7968 136.288 76.4027 127.767 76.634 125.613C76.7469 124.562 75.859 122.138 76.1896 121.124C76.5364 120.06 78.3849 118.548 78.3849 116.343C78.3849 114.137 74.6248 113.287 73.5751 112.745C64.2473 107.929 58.315 99.8852 61.2713 95.8028C65.3902 90.1148 81.5326 99.0642 86.3829 99.8852C86.4457 99.8959 87.312 95.3738 88.0195 94.3383C89.4351 92.2667 90.9995 90.2557 92.8658 88.5787C93.7019 87.8275 94.8351 87.3637 95.9489 87.2135C99.2823 86.7637 102.693 86.3949 106.031 86.8022C107.211 86.9462 114.237 78.8144 116.977 76.1914C137.996 56.0666 180.132 80.5907 157.164 113.915C152.943 120.04 147.545 121.988 146.847 124.153C145.299 128.961 155.047 128.329 159.177 128.843C166.231 129.72 169.708 133.344 165.329 139.555C162.601 143.425 146.596 143.227 139.585 140.429C136.983 139.391 133.767 134.85 131.308 138.575C129.613 141.141 123.007 146.587 115.919 149.667C112.72 151.057 109.077 150.219 106.347 151.461C102.504 153.209 91.1605 160.547 86.3829 160.545C81.5714 160.543 75.345 154.753 74.6248 154.373C73.5268 153.794 65.0333 152.135 60.8375 145.66C59.5686 143.702 56.3473 146.627 55.4781 144.456Z" fill="white"/>
<ellipse cx="137.174" cy="110.077" rx="1.47558" ry="1.45448" fill="#FFB61D"/>
<circle cx="126.37" cy="107.041" r="1.43267" fill="#FFB61D"/>
<circle cx="230.75" cy="105.813" r="19.4433" fill="white"/>
<ellipse cx="169.954" cy="216.116" rx="56.4982" ry="48.2894" fill="white"/>
<path fill-rule="evenodd" clip-rule="evenodd" d="M122.056 242.446L122.69 242.905C121.259 244.19 119.106 242.593 117.899 241.096C115.958 238.69 113.988 236.132 113.398 233.097C113.062 231.37 113.196 229.591 113.332 227.837L113.879 220.764C114.122 217.63 114.365 214.49 114.908 211.394C116.376 203.015 120.072 195.036 125.515 188.497L125.569 188.431C126.53 187.277 127.58 186.017 127.561 184.52C127.522 181.354 129.345 178.396 131.739 176.323C134.133 174.251 137.064 172.921 139.95 171.619C141.258 171.029 142.965 170.501 143.979 171.516C146.063 173.604 149.542 172.274 152.295 171.214C155.675 169.912 159.286 169.21 162.907 169.152C163.013 169.15 163.119 169.148 163.226 169.147L163.226 169.147C165.401 169.116 167.848 169.081 169.175 167.396C170.02 166.323 171.635 166.386 172.991 166.548L182.315 167.663C183.027 167.748 183.881 167.943 184.106 168.624C184.708 170.452 186.833 171.197 188.675 171.753C195.224 173.728 201.626 176.409 207.186 180.393C212.746 184.378 217.445 189.737 219.939 196.107C215.884 190.566 211.725 184.92 206.099 180.985C204.489 179.859 202.776 178.886 201.038 177.97C196.935 175.807 192.665 173.943 188.229 172.589C167.637 166.304 143.818 172.133 128.455 187.217C126.228 189.404 124.139 191.813 122.876 194.668L124.545 195.186C121.9 196.368 119.935 198.958 119.51 201.824C120.575 200.001 122.092 198.444 123.887 197.333C123.373 199.05 122.037 200.429 120.727 201.781C119.057 203.504 117.43 205.183 117.603 207.46C118.396 205.379 120.393 203.809 122.601 203.529C119.098 206.952 115.339 210.969 115.451 215.865C116.728 213.038 118.898 210.621 121.572 209.048L117.723 214.221C116.267 216.178 114.733 218.413 115.066 220.829C116.333 218.556 118.144 216.589 120.304 215.139C119.264 217.505 117.778 219.674 115.949 221.5C117.689 221.29 119.364 220.569 120.713 219.45C120.147 220.24 119.638 221.131 119.619 222.102C119.6 223.073 120.229 224.115 121.19 224.254C121.481 223.604 122.393 223.329 122.995 223.711C121.171 225.486 121.152 228.774 122.956 230.569C123.116 229.725 123.828 229.014 124.672 228.855C123.327 231.207 123.085 234.16 124.029 236.7C124.315 235.261 125.114 233.929 126.248 232.999C125.594 236.412 124.148 239.671 122.056 242.446ZM121.26 241.359C122.398 241.347 123.107 240.073 123.226 238.94C123.368 237.585 123.031 236.231 122.697 234.91L120.716 227.074C120.343 227.192 120.3 227.598 120.254 228.023C120.216 228.386 120.175 228.762 119.927 228.986C119.426 228.362 119.369 227.418 119.792 226.739C120.219 226.053 119.94 225.092 119.334 224.558C118.728 224.023 117.886 223.842 117.078 223.815C116.642 223.801 116.178 223.834 115.821 224.085C115.464 224.337 115.276 224.871 115.529 225.226C116.284 226.284 116.852 227.475 117.199 228.728C117.225 228.821 117.25 228.916 117.275 229.011C117.448 229.662 117.625 230.33 118.101 230.794C118.469 231.152 118.563 231.699 118.637 232.207L119.243 236.324C119.353 237.074 119.463 237.838 119.337 238.585C119.211 239.332 118.807 240.073 118.13 240.412L120.293 241.148C120.607 241.254 120.928 241.362 121.26 241.359ZM144.839 173.873C144.413 173.963 144.055 173.589 143.75 173.269L143.715 173.232C143.402 172.905 142.864 172.62 142.535 172.93C138.695 176.542 134.326 179.59 129.611 181.946C128.755 182.374 128.64 183.527 128.639 184.484C128.639 184.803 128.945 185.252 129.145 185.002C130.117 183.784 131.381 182.838 132.631 181.906C136.147 179.285 139.706 176.638 143.737 174.91C144.226 174.7 144.799 174.404 144.839 173.873ZM183.428 169.811C183.211 169.3 182.592 169.116 182.046 169.013C180.56 168.733 179.048 168.606 177.537 168.48C175.461 168.305 173.389 168.132 171.392 167.562C170.752 167.379 170.205 168.028 169.854 168.593C170.907 168.483 171.966 168.438 173.024 168.458C174.865 168.492 176.697 168.721 178.524 168.95C179.453 169.066 180.388 169.184 181.278 169.472C181.382 169.506 181.487 169.542 181.592 169.578C182.2 169.787 182.828 170.002 183.428 169.811ZM163.771 177.659C164.192 177.755 164.593 178.069 164.656 178.497C164.718 178.923 164.427 179.338 164.056 179.555C163.684 179.772 163.244 179.832 162.817 179.889L161.532 180.059C161.403 180.076 161.271 180.095 161.159 180.161C160.836 180.352 160.858 180.87 161.122 181.137C161.386 181.404 161.791 181.47 162.167 181.469C163.915 181.466 165.569 180.208 166.103 178.544C166.23 178.148 166.297 177.709 166.14 177.325C166.06 177.13 165.927 176.961 165.779 176.811C165.092 176.114 164.068 175.807 163.091 175.876C162.115 175.945 161.186 176.361 160.392 176.933C160.011 177.207 159.648 177.527 159.432 177.944C159.216 178.36 159.169 178.888 159.411 179.29C159.504 179.443 159.646 179.579 159.823 179.608C159.999 179.637 160.203 179.523 160.225 179.345C160.286 178.852 160.646 178.435 161.076 178.184C161.505 177.933 162 177.823 162.488 177.725C162.911 177.64 163.35 177.563 163.771 177.659ZM129.324 202.075C129.805 199.234 132.099 196.925 134.774 195.854C136.248 195.265 137.935 195.006 139.418 195.574C139.784 195.715 140.138 195.908 140.401 196.198C140.649 196.47 140.805 196.814 140.922 197.163C141.676 199.397 140.911 201.98 139.293 203.695C137.675 205.409 135.319 206.309 132.968 206.477C132.214 206.531 131.405 206.501 130.783 206.072C130.161 205.644 129.852 204.693 130.331 204.109C130.558 204.12 130.68 204.322 130.805 204.529L130.805 204.529C130.867 204.632 130.929 204.735 131.006 204.818C131.267 205.099 131.699 205.119 132.082 205.103C133.749 205.033 135.442 204.619 136.799 203.648C138.156 202.677 139.131 201.091 139.103 199.422C139.094 198.885 138.977 198.335 138.672 197.892C138.172 197.164 137.227 196.836 136.346 196.894C135.465 196.952 134.64 197.343 133.89 197.808C132.903 198.421 131.991 199.19 131.373 200.173C130.754 201.156 130.452 202.371 130.713 203.503C130.482 203.92 129.795 203.837 129.511 203.454C129.227 203.07 129.245 202.545 129.324 202.075ZM144.68 225.489C143.46 226.274 142.448 227.503 142.26 228.941C142.108 230.105 142.498 231.263 142.882 232.372C143.182 233.238 143.492 234.122 144.064 234.837C145.096 236.13 146.804 236.665 148.437 236.928C148.882 237 149.557 236.799 149.398 236.377C147.674 236.345 145.978 235.546 144.856 234.237C143.733 232.927 143.204 231.129 143.436 229.42C143.485 229.06 143.567 228.702 143.718 228.372C144.024 227.705 144.593 227.192 145.21 226.793C146.537 225.936 148.152 225.534 149.727 225.67C151.244 225.801 152.76 226.466 153.687 227.675C154.613 228.885 154.834 230.669 154.017 231.954C153.884 232.163 153.787 232.532 154.03 232.576C155.347 231.867 156.077 230.303 156.003 228.81C155.93 227.317 155.141 225.919 154.058 224.889C153.459 224.319 152.749 223.838 151.945 223.644C150.885 223.389 149.776 223.652 148.722 223.93C147.319 224.299 145.899 224.704 144.68 225.489ZM204.589 227.344C200.178 225.697 195.385 225.083 190.701 225.565C188.737 225.767 186.767 226.168 185.001 227.052C181.67 228.719 179.288 232.152 178.891 235.856C178.495 239.56 180.097 243.419 183 245.753C184.101 246.638 185.351 247.301 186.602 247.965L186.602 247.965C187.457 248.418 188.312 248.871 189.121 249.396C189.352 249.617 188.832 249.838 188.528 249.74C185.698 248.826 182.951 247.437 180.932 245.254C178.477 242.598 177.28 238.827 177.753 235.241C178.227 231.655 180.363 228.324 183.423 226.396C185.844 224.872 188.738 224.23 191.597 224.126C194.456 224.023 197.307 224.432 200.134 224.87C201.899 225.144 203.97 225.668 204.589 227.344ZM158.175 232.871C157.974 232.412 157.169 232.292 157.022 232.771C156.086 235.816 153.115 238.118 149.932 238.264C149.213 238.297 148.493 238.231 147.777 238.161C146.233 238.012 144.641 237.835 143.289 237.075C141.345 235.982 140.176 233.738 140.162 231.508C140.148 229.278 141.206 227.111 142.812 225.564C142.589 224.94 141.632 225.241 141.157 225.703C138.523 228.264 138.071 232.683 139.919 235.858C141.767 239.032 145.641 240.812 149.292 240.408C152.943 240.005 156.24 237.56 157.937 234.302C158.168 233.858 158.375 233.33 158.175 232.871ZM135.31 248.29C134.715 250.571 134.659 252.991 135.146 255.297C135.365 256.331 135.389 256.901 135.394 257.008L135.394 257.019C135.394 257.024 135.394 257.026 135.395 257.026C135.395 257.026 135.395 257.02 135.396 257.008L135.396 257.008C135.4 256.901 135.426 256.329 135.65 255.293C136.149 252.983 136.03 250.542 135.31 248.29ZM138.47 249.67C137.625 251.441 137.73 253.633 138.74 255.316C138.967 255.694 139.139 256.001 139.266 256.228C139.437 256.532 139.526 256.692 139.557 256.681C139.59 256.669 139.554 256.456 139.479 256.009L139.479 256.009C139.449 255.829 139.413 255.612 139.372 255.356L138.47 249.67ZM140.849 251.932C140.49 253.063 140.754 254.37 141.523 255.274C142.309 256.196 142.565 256.492 142.326 255.304C142.082 254.092 141.574 252.933 140.849 251.932ZM209.702 239.069C208.623 243.4 205.177 246.682 201.836 249.641C201.988 249.97 202.482 249.852 202.798 249.674C206.183 247.769 208.921 244.665 210.171 240.987C211.42 237.31 211.11 233.085 209.137 229.74C208.972 229.459 208.761 229.16 208.441 229.097C208.121 229.035 207.752 229.406 207.94 229.672C209.836 232.357 210.496 235.879 209.702 239.069ZM161.043 199.963C161.035 199.278 161.045 198.536 161.458 197.99C162.028 197.238 163.109 197.159 164.052 197.146C164.473 197.14 164.899 197.135 165.309 197.232C166.181 197.44 166.876 198.083 167.495 198.732C167.632 198.875 167.778 199.052 167.744 199.248C167.702 199.491 167.398 199.602 167.157 199.552C166.996 199.52 166.852 199.44 166.708 199.36L166.708 199.36L166.708 199.36L166.708 199.36L166.708 199.36C166.635 199.32 166.563 199.279 166.488 199.245C165.62 198.847 164.601 199.283 163.822 199.834C163.7 199.921 163.567 200.032 163.564 200.182C163.561 200.333 163.69 200.45 163.812 200.539C164.865 201.31 166.213 201.667 167.509 201.518C167.819 201.482 168.183 201.369 168.264 201.067C168.295 200.95 168.283 200.811 168.271 200.677C168.251 200.453 168.233 200.242 168.421 200.164C168.519 200.124 168.63 200.153 168.732 200.183C169.434 200.387 170.254 200.715 170.39 201.433C170.43 201.64 170.402 201.857 170.336 202.057C170.142 202.644 169.604 203.103 168.993 203.2C168.722 203.243 168.446 203.219 168.172 203.196C167.458 203.135 166.743 203.073 166.036 202.959C164.736 202.75 163.466 202.363 162.27 201.812C161.856 201.621 161.424 201.386 161.214 200.98C161.055 200.672 161.047 200.31 161.043 199.963ZM187.731 183.068C187.313 181.939 186.304 181.048 185.132 180.774C184.77 180.689 184.36 180.668 184.053 180.878C183.745 181.088 183.64 181.6 183.933 181.83C184.217 182.053 184.045 182.577 183.698 182.676C183.351 182.775 182.977 182.539 182.803 182.222C182.63 181.905 182.611 181.529 182.609 181.168C182.607 180.686 182.651 180.148 183.007 179.823C183.142 179.7 183.311 179.62 183.479 179.545C184.173 179.235 184.939 178.972 185.681 179.138C186.387 179.297 186.95 179.819 187.443 180.349C187.847 180.784 188.228 181.239 188.587 181.713C188.902 182.13 189.206 182.575 189.324 183.084C189.443 183.594 189.341 184.185 188.947 184.529C188.562 184.867 187.969 184.895 187.501 184.687C187.088 184.503 186.736 184.098 186.766 183.647C186.797 183.196 187.351 182.822 187.731 183.068ZM191.458 214.803C192.494 214.773 193.459 213.975 193.683 212.964C193.819 212.348 193.651 211.617 193.115 211.286C192.723 211.044 192.23 211.061 191.771 211.091C191.135 211.132 190.475 211.187 189.922 211.505C189.369 211.822 188.959 212.48 189.132 213.094C189.413 214.091 190.422 214.833 191.458 214.803ZM191.591 213.308C191.391 213.362 191.105 213.31 191.087 213.104C191.08 213.018 191.126 212.937 191.179 212.869C191.473 212.488 192.034 212.339 192.478 212.526C192.324 212.904 191.986 213.202 191.591 213.308ZM192.126 197.98C191.957 197.591 192.284 197.137 192.681 196.988C193 196.869 193.345 196.881 193.688 196.893C193.773 196.896 193.858 196.9 193.943 196.901C194.367 196.906 194.836 196.835 195.111 196.512C195.208 196.398 195.274 196.231 195.2 196.101C195.123 195.965 194.94 195.941 194.784 195.933C193.703 195.877 192.426 195.91 191.802 196.796C191.668 196.986 191.34 196.922 191.215 196.726C191.09 196.53 191.118 196.272 191.19 196.051C191.445 195.257 192.178 194.68 192.979 194.449C193.779 194.217 194.639 194.29 195.452 194.474C195.726 194.536 196.011 194.618 196.211 194.815C196.37 194.972 196.459 195.186 196.517 195.401C196.794 196.431 196.385 197.61 195.53 198.247C194.675 198.884 193.429 198.939 192.521 198.379C192.359 198.28 192.202 198.155 192.126 197.98ZM188.419 216.171C188.921 216.773 189.516 217.32 190.238 217.626C191.696 218.245 193.56 217.673 194.421 216.343C194.734 215.858 194.874 215.119 194.411 214.775C193.669 216.335 191.517 217.023 190.007 216.184C189.718 216.024 189.455 215.818 189.216 215.589C188.13 214.55 187.564 212.852 188.201 211.491C188.408 211.047 188.727 210.664 189.076 210.32C189.837 209.569 190.925 208.955 191.94 209.288C191.982 209.302 192.024 209.318 192.066 209.333C192.208 209.386 192.351 209.438 192.5 209.429C192.694 209.418 192.896 209.245 192.847 209.057C192.832 209.002 192.797 208.954 192.762 208.908C192.134 208.109 190.903 207.862 190.016 208.358C188.96 208.948 187.887 209.642 187.326 210.713C186.412 212.457 187.158 214.659 188.419 216.171ZM205.236 189.277C205.19 189.344 205.201 189.436 205.212 189.525C205.226 189.63 205.238 189.73 205.152 189.772C204.836 189.928 204.457 189.912 204.121 189.809C203.201 189.527 202.584 188.683 202.064 187.874C201.76 187.401 201.457 186.898 201.408 186.338C201.359 185.777 201.645 185.147 202.185 184.988C202.787 184.811 203.377 185.259 203.845 185.676C204.374 186.146 204.914 186.631 205.241 187.259C205.568 187.886 205.64 188.697 205.236 189.277ZM203.237 187.178C203.367 187.304 203.438 187.473 203.509 187.643C203.579 187.809 203.649 187.976 203.775 188.102C203.935 188.262 204.177 188.333 204.398 188.285C203.984 187.646 203.505 187.048 202.971 186.506C202.828 186.549 202.816 186.761 202.902 186.883C202.954 186.957 203.027 187.011 203.1 187.066C203.147 187.101 203.195 187.137 203.237 187.178ZM124.518 244.989C124.467 245.829 124.531 246.802 125.203 247.308C125.427 247.183 125.412 246.863 125.384 246.608C125.21 245.038 125.697 243.525 126.187 242.002C126.538 240.912 126.891 239.817 127.004 238.692C127.037 238.366 126.95 237.919 126.622 237.907C126.376 237.897 126.218 238.156 126.119 238.381C125.201 240.466 124.656 242.715 124.518 244.989ZM189.711 214.703C190.469 215.039 191.31 215.381 192.104 215.14C192.419 215.044 192.7 214.862 192.977 214.682C192.975 215.146 192.576 215.535 192.132 215.668C191.687 215.8 191.209 215.729 190.756 215.631C190.253 215.522 189.637 215.213 189.711 214.703ZM129.728 253.413C129.921 253.068 129.954 252.659 129.983 252.265L130.212 249.126C130.324 247.585 130.437 246.038 130.336 244.497C130.323 244.302 130.304 244.097 130.19 243.939C130.077 243.781 129.837 243.696 129.682 243.814C129.568 243.9 129.539 244.057 129.519 244.199C129.27 245.981 129.138 247.78 129.122 249.58C129.11 250.885 129.17 252.233 129.728 253.413ZM126.297 250.714C126.096 250.884 125.761 250.735 125.65 250.496C125.539 250.257 125.584 249.978 125.631 249.72C126.128 247.01 126.692 244.313 127.321 241.631C127.337 241.564 127.354 241.494 127.398 241.44C127.563 241.235 127.898 241.442 128.016 241.677C128.305 242.256 128.166 242.946 128.022 243.576L126.47 250.345C126.439 250.48 126.402 250.625 126.297 250.714ZM131.672 250.835C131.585 251.851 131.738 252.871 131.89 253.879C131.944 254.239 132.202 254.716 132.527 254.552L133.159 247.791C133.185 247.516 133.202 247.21 133.032 246.993C132.861 246.776 132.429 246.785 132.375 247.056L131.908 249.374C131.811 249.858 131.714 250.343 131.672 250.835ZM196.967 230.111C195.167 229.184 192.976 228.819 191.106 229.595C189.709 230.175 185.761 232.68 185.236 235.891C184.884 238.041 184.888 240.237 185.64 242.312L185.761 242.638C185.985 243.226 186.699 243.901 187.098 243.415C185.933 241.308 185.715 238.7 186.515 236.429C187.315 234.159 189.119 232.263 191.348 231.352C191.817 231.16 192.306 231.009 192.811 230.961C193.831 230.865 194.849 231.195 195.76 231.662C197.723 232.668 200.155 234.341 201.09 236.339C201.991 238.265 202.654 240.562 201.839 242.526C201.024 244.49 195.669 245.911 195.669 245.911L196.261 246.992C196.261 246.992 199.259 246.401 201.09 245.067C208.776 239.47 198.689 230.998 196.967 230.111Z" fill="#00160A"/>
<path fill-rule="evenodd" clip-rule="evenodd" d="M61.1022 202.472C58.384 202.763 55.5049 202.134 53.3825 200.411C51.8794 199.191 50.8232 197.493 50.0821 195.704C49.2775 193.762 48.8149 191.679 48.7219 189.579C48.6869 188.788 48.7057 187.983 48.938 187.227C49.3204 185.982 50.2413 184.982 51.1813 184.081C53.1812 182.163 55.5318 180.413 58.2733 180.01C60.1414 179.735 62.0416 180.109 63.8702 180.58C65.3063 180.95 66.7406 181.385 68.0324 182.114C70.8868 183.723 72.8648 186.792 73.1509 190.057C73.437 193.321 73.085 195.484 68.6798 199.54C66.3907 201.034 63.8204 202.18 61.1022 202.472ZM65.8956 192.225C65.4548 192.364 65.0153 192.61 64.5602 192.53C63.6304 192.366 63.464 191.09 63.6704 190.169C64.2615 187.532 66.0997 185.203 68.5274 184.016C67.9779 183.019 66.518 182.945 65.4854 183.425C64.4529 183.904 63.6457 184.767 62.6472 185.313C62.1503 185.585 61.5614 185.778 61.0208 185.609C60.1313 185.33 59.7918 184.165 60.083 183.28C60.3742 182.394 61.101 181.733 61.7988 181.115C59.2701 181.204 56.7679 181.963 54.6161 183.294C52.9315 184.336 51.3336 186.045 51.5571 188.013C52.9499 186.892 54.5853 186.073 56.3176 185.631C56.685 185.537 57.1462 185.49 57.3761 185.791C57.5503 186.02 57.5003 186.348 57.3887 186.613C56.835 187.926 55.2066 188.367 54.1966 189.372C54.064 189.504 53.9368 189.657 53.9047 189.841C53.8418 190.202 54.1861 190.532 54.5479 190.592C54.9096 190.652 55.2728 190.521 55.6159 190.391C56.3286 190.122 57.0412 189.854 57.7539 189.585C58.2697 189.39 58.8822 189.204 59.341 189.51C59.8156 189.827 59.8603 190.546 59.5921 191.05C59.3239 191.553 58.8315 191.891 58.3577 192.208C57.2156 192.974 56.0734 193.739 54.9313 194.505C53.9751 195.146 52.9038 196.01 52.9947 197.157C53.0802 198.237 54.2685 198.971 55.3499 198.902C56.4312 198.833 57.3828 198.171 58.1809 197.439C58.979 196.706 59.6994 195.869 60.6261 195.307C61.2309 194.941 62.0938 194.738 62.5851 195.246C62.9646 195.639 62.928 196.271 62.7856 196.798C62.375 198.318 61.265 199.634 59.8358 200.294C60.9986 200.563 62.2112 200.613 63.3923 200.443C64.0659 200.346 64.7632 200.159 65.2503 199.683C65.7374 199.208 65.926 198.372 65.5035 197.838C64.8732 197.042 64.8983 195.878 65.301 194.946C65.7036 194.014 66.4229 193.262 67.1275 192.531C66.9258 192.115 66.3365 192.087 65.8956 192.225ZM71.2788 194.031C71.912 192.568 71.9351 190.912 71.7747 189.326C71.5974 187.571 70.9856 185.565 69.3326 184.95C66.9102 185.955 65.0407 188.198 64.4884 190.762C64.442 190.978 64.4057 191.209 64.4904 191.413C64.5752 191.616 64.8271 191.765 65.0223 191.662C65.692 191.311 66.5157 191.112 67.1966 191.441C67.8774 191.77 68.209 192.796 67.6577 193.314C67.0485 193.885 66.4229 194.48 66.0943 195.248C65.7657 196.016 65.813 197.01 66.4318 197.572C66.8967 197.993 66.8979 198.822 66.4342 199.245C67.7526 198.86 68.6921 197.726 69.5471 196.651C70.2007 195.829 70.8618 194.995 71.2788 194.031ZM56.1007 186.463C54.7291 187.031 53.3978 187.697 52.12 188.453C51.8161 188.633 51.5089 188.823 51.2867 189.098C50.9867 189.468 50.8727 189.952 50.78 190.42C50.4804 191.931 50.326 193.558 50.9605 194.961C51.1631 195.409 51.4399 195.819 51.7154 196.226C51.7967 196.347 51.889 196.475 52.0284 196.516C52.1678 196.556 52.3518 196.444 52.3191 196.302C52.2182 195.867 52.5482 195.457 52.8738 195.15C54.7812 193.355 57.3507 192.324 59.0659 190.344C58.8057 190.036 58.3122 190.181 57.9412 190.34C57.0576 190.717 56.1465 191.03 55.2175 191.275C54.7383 191.401 54.2042 191.504 53.7669 191.271C53.1268 190.929 53.0226 189.996 53.3607 189.354C53.6988 188.712 54.3415 188.298 54.9614 187.921C55.5812 187.545 56.2315 187.151 56.6035 186.529C56.5358 186.351 56.2759 186.39 56.1007 186.463ZM60.7945 198.489C61.4007 198.002 62.0555 197.428 62.1216 196.653C62.1562 196.248 61.8964 195.753 61.4917 195.791C61.3673 195.803 61.2537 195.865 61.1464 195.929C59.3838 196.982 58.2239 199.041 56.2356 199.553C56.7974 199.804 57.3833 200.002 57.9826 200.143C58.161 200.185 58.3468 200.222 58.5263 200.184C58.7352 200.141 58.9099 200.003 59.0762 199.87C59.649 199.41 60.2218 198.949 60.7945 198.489ZM62.4337 181.657C62.0415 182.091 61.6493 182.525 61.2571 182.958C60.9464 183.302 60.6131 183.755 60.786 184.185C60.9134 184.502 61.2896 184.662 61.6299 184.635C61.9701 184.609 62.28 184.435 62.5654 184.248C63.5821 183.58 64.4976 182.672 65.6842 182.405C64.8615 182.105 64.0388 181.806 63.216 181.506C63.0447 181.443 62.8537 181.381 62.6851 181.45C62.584 181.492 62.5071 181.576 62.4337 181.657Z" fill="#00160A"/>
<path fill-rule="evenodd" clip-rule="evenodd" d="M77.7439 129.84C77.6413 131.895 76.0555 134.121 74.0117 133.878C73.0893 132.811 72.3673 131.487 71.6538 130.179C70.2835 127.665 68.9444 125.209 66.2765 124.743C63.656 124.285 61.2157 126.212 59.5836 128.313C57.2199 131.356 55.6925 135.041 55.211 138.864C54.9279 141.111 55.8495 144.227 58.101 143.98C60.6727 143.698 62.5017 145.721 64.3619 147.778C66.0837 149.682 67.8322 151.616 70.2212 151.78C73.0658 151.974 75.3893 153.678 77.7414 155.403C79.3123 156.555 80.8958 157.717 82.6559 158.444C85.9668 159.812 89.7848 159.547 93.1645 158.359C96.5442 157.171 99.5519 155.125 102.399 152.95L102.548 152.836C104.102 151.648 105.728 150.404 107.661 150.142C117.541 148.803 126.731 143.008 132.197 134.669C139.946 140.863 150.78 142.98 160.291 140.159C161.905 139.68 163.529 139.038 164.726 137.854C165.922 136.671 166.601 134.832 166.013 133.255C165.369 131.531 163.447 130.607 161.62 130.385C160.618 130.263 159.608 130.299 158.598 130.335C157.765 130.365 156.932 130.395 156.102 130.336C151.079 129.981 146.895 126.516 143.091 123.215C148.603 121.524 153.072 117.278 156.022 112.325C158.973 107.373 160.554 101.731 161.756 96.0922C162.388 93.125 162.858 89.7824 161.162 87.2664C160.404 86.1403 159.291 85.317 158.183 84.4965C156.934 83.5727 155.691 82.6524 154.963 81.3077C153.563 78.721 150.835 77.1871 148.247 75.7898C141.474 72.1331 133.694 68.3696 126.395 70.8117C123.552 71.7629 121.096 73.5857 118.701 75.3897C114.724 78.3854 110.464 81.8994 109.707 86.8202C103.201 83.9092 94.7829 86.2341 90.6925 92.0717C89.7569 93.4069 89.0387 94.8794 88.3211 96.3504L88.3211 96.3504C87.4764 98.0822 86.6326 99.8118 85.4365 101.313C80.6321 99.1241 75.7369 97.1343 70.7677 95.3507C68.5646 94.5599 65.9328 93.8611 64.0341 95.2301C62.5118 96.3277 62.0448 98.4823 62.4917 100.305C62.9386 102.128 64.1315 103.673 65.4108 105.047C68.1863 108.026 71.5202 110.483 75.1874 112.252C75.3053 112.309 75.4241 112.366 75.5433 112.423L75.5436 112.423L75.5444 112.423C76.6926 112.97 77.873 113.532 78.6376 114.537C79.4818 115.645 79.5342 117.5 78.3507 118.236C76.6027 119.322 76.2808 121.76 76.6391 123.787C76.7615 124.479 76.9413 125.165 77.1208 125.85C77.4666 127.17 77.8115 128.487 77.7439 129.84ZM125.201 140.678C120.796 145.303 114.598 148.008 108.261 148.799C101.923 149.59 95.4515 148.562 89.3974 146.528C91.0259 146.527 92.2035 144.394 91.3372 143.016C88.0006 146.905 82.9139 148.727 78.0668 150.39C73.6879 151.893 68.4538 150.801 65.2373 147.472C62.0207 144.142 61.1503 138.678 63.4123 134.639C64.3955 132.883 66.0632 131.355 68.0682 131.182C70.0732 131.01 72.2321 132.673 72.0462 134.676C70.9305 134.482 69.7564 135.43 69.7104 136.562C74.0266 136.097 78.0844 133.623 80.4756 130C81.3009 128.749 81.9281 127.387 82.5558 126.024C82.9773 125.109 83.399 124.193 83.8811 123.31C85.0812 121.111 86.8043 119.016 89.1921 118.261C91.1085 117.655 93.1802 117.991 95.161 118.332L103.961 119.85C104.619 119.281 103.553 118.37 102.701 118.192C99.9507 117.617 97.1621 117.263 94.3733 116.909L94.3732 116.909C91.7871 116.581 89.2009 116.252 86.6448 115.748C81.3322 114.7 75.9926 112.783 72.1257 108.992C74.7487 107.483 76.7443 104.919 77.5631 102.006C77.7288 101.416 77.3341 100.448 76.8555 100.83C76.3087 102.721 75.716 104.693 74.346 106.107C72.976 107.521 70.5713 108.142 69.0206 106.929C67.0076 105.355 64.8913 103.637 64.0952 101.209C63.2991 98.7804 64.5584 95.5191 67.0966 95.2213C68.2358 95.0877 69.3495 95.5584 70.4001 96.019L80.999 100.665C84.1535 102.048 87.355 103.444 90.7625 103.946C93.155 104.298 95.5883 104.199 98.0046 104.1L104.854 103.817C105.135 103.806 105.422 103.793 105.68 103.683C106.368 103.389 106.601 102.548 106.753 101.816C108.591 92.9457 111.061 83.5849 117.743 77.468C120.732 74.7309 124.457 72.8038 128.418 71.9441C132.322 71.0966 136.63 71.3458 139.992 73.5053C134.353 73.9204 128.877 76.2984 124.724 80.1358C122.979 78.2732 119.732 79.7957 118.34 81.9352C116.183 85.2516 116.222 89.8587 118.435 93.138C120.299 95.8983 120.99 99.1919 121.682 102.493C122.319 105.527 122.956 108.567 124.507 111.206C126.959 115.381 131.527 118.061 136.297 118.892C141.067 119.722 146.012 118.855 150.546 117.154C145.472 122.216 137.366 123.966 130.655 121.45C130.166 121.267 129.68 121.062 129.193 120.857L129.193 120.857C127.651 120.207 126.103 119.556 124.45 119.575C125.419 120.601 126.656 121.371 128.004 121.788C126.45 124.399 124.818 126.965 123.114 129.481C122.896 129.803 122.647 130.146 122.274 130.255C121.858 130.376 121.424 130.169 121.045 129.959C117.91 128.227 115.101 125.909 112.804 123.16L108.211 128.748C110.568 131.629 113.324 134.184 116.376 136.317C112.314 141.334 106.161 144.602 99.7298 145.157C106.387 145.496 113.126 142.374 117.172 137.076C119.733 138.514 122.424 139.721 125.201 140.678ZM146.254 91.5457C147.725 89.9417 148.27 87.6505 148.145 85.4777C148.019 83.3049 147.288 81.2153 146.479 79.1947C148.587 78.9449 150.727 79.7399 152.406 81.0381C154.084 82.3362 155.345 84.1026 156.379 85.9555C157.633 88.2016 158.594 90.6302 159.011 93.1685C159.993 99.1449 157.897 105.239 154.912 110.509C154.333 111.532 153.709 112.548 152.863 113.365C152.011 114.188 150.964 114.78 149.89 115.279C145.458 117.337 140.361 117.932 135.574 116.947C138.63 114.403 140.787 110.899 142.162 107.168C143.536 103.437 144.165 99.4721 144.527 95.5129L144.529 95.4907C144.62 94.4923 144.716 93.443 145.285 92.6186C145.474 92.3457 145.707 92.1091 145.94 91.8724L145.94 91.8723L145.94 91.872L145.94 91.8719C146.046 91.7644 146.152 91.6567 146.254 91.5457ZM140.725 108.036C139.407 111.12 137.364 113.952 134.595 115.844C134.271 116.066 133.923 116.28 133.532 116.325C133.188 116.366 132.843 116.271 132.512 116.166C130.158 115.423 127.934 114.106 126.423 112.153C125.875 111.444 125.428 110.663 125.029 109.861C122.122 104.02 121.837 96.9326 124.266 90.877C124.382 90.5877 124.548 90.2629 124.854 90.2023C125.249 90.1238 125.553 90.5283 125.774 90.8647C127.589 93.6142 130.982 95.0061 134.273 95.1503C137.564 95.2944 140.801 94.3591 143.922 93.3042C143.353 94.6951 143.209 96.2102 143.065 97.7111L143.065 97.7119L143.065 97.7127L143.065 97.7133C143.047 97.9016 143.029 98.0896 143.01 98.2772C142.676 101.614 142.044 104.952 140.725 108.036ZM140.055 79.386C141.739 79.0032 143.704 78.8979 144.991 80.0498C145.406 80.4218 145.715 80.899 145.969 81.3956C147.563 84.5102 146.939 88.6123 144.491 91.1118C141.66 94.0013 137.181 94.4777 133.151 94.1347C131.705 94.0116 130.218 93.7891 128.983 93.026C127.386 92.0387 126.44 90.2989 125.566 88.6372C129.449 84.2981 134.377 80.6768 140.055 79.386ZM153.675 131.767C153.147 133.101 152.613 134.454 152.44 135.878C152.267 137.302 152.492 138.831 153.359 139.975C146.17 140.373 138.864 138.156 133.109 133.83C134.965 131.204 136.43 128.302 137.443 125.249C137.843 124.043 139.37 123.54 140.609 123.819C141.75 124.076 142.708 124.808 143.643 125.522C143.723 125.584 143.803 125.645 143.884 125.706C146.944 128.029 150.316 129.903 153.675 131.767ZM103.44 149.985C102.306 151.262 100.951 152.321 99.5668 153.321C96.6777 155.407 93.5271 157.303 90.0155 157.909C84.8692 158.797 79.3092 156.577 76.1895 152.389L87.4143 148.202C87.6831 148.102 87.9614 148 88.2478 148.016C88.4096 148.025 88.5652 148.072 88.7212 148.118L88.7213 148.118L88.7214 148.118L88.7215 148.118L88.7216 148.118C88.8253 148.149 88.9291 148.18 89.035 148.2C89.3953 148.268 89.7589 148.209 90.124 148.148C90.3512 148.111 90.579 148.073 90.807 148.067C91.6473 148.041 92.4194 148.425 93.1834 148.805L93.1836 148.805L93.1838 148.805L93.184 148.805L93.1842 148.806C93.3778 148.902 93.571 148.998 93.7646 149.087C96.7412 150.456 100.173 150.234 103.44 149.985ZM87.2323 101.959C87.1532 101.782 87.2366 101.578 87.3202 101.403C89.6189 96.5888 92.6599 92.1297 96.3026 88.2319C98.8649 91.7897 100.57 95.9602 101.235 100.294C101.368 101.16 101.224 102.358 100.354 102.467C96.1859 102.986 91.9443 102.916 87.7954 102.258C87.5761 102.223 87.323 102.161 87.2323 101.959ZM102.932 101.662C102.074 96.943 100.292 92.3942 97.7173 88.348C99.8967 87.2005 102.473 87.1818 104.936 87.1895C106.492 87.1944 108.19 87.2492 109.375 88.2564L106.3 97.3294C105.778 98.8697 105.25 100.453 105.315 102.078L103.372 102.109C103.302 102.11 103.231 102.111 103.167 102.084C103.012 102.02 102.963 101.827 102.932 101.662ZM127.942 124.88C128.458 124.002 128.95 123.064 129.002 122.046C131.328 123.092 133.889 123.611 136.438 123.551C136.838 123.542 136.824 124.159 136.66 124.524C136.164 125.629 135.667 126.735 135.092 127.801C134.503 128.895 133.833 129.944 133.165 130.993L131.562 133.505C131.343 133.848 131.116 134.2 130.79 134.445C129.916 135.103 128.667 134.786 127.669 134.338C126.013 133.594 124.488 132.558 123.187 131.292C124.994 129.332 126.591 127.179 127.942 124.88ZM67.8045 127.051C68.575 127.828 69.0786 128.824 69.5695 129.802L67.258 130.131C66.4878 130.241 65.6981 130.357 65.0173 130.734C64.355 131.1 63.8442 131.688 63.3947 132.297C61.5147 134.844 60.4727 137.999 60.4661 141.164C60.4638 142.308 59.1124 143.124 58.0063 142.834C56.9003 142.544 56.1489 141.445 55.9577 140.318C55.7665 139.191 56.0358 138.038 56.3735 136.946C57.5619 133.101 59.6877 129.471 62.8329 126.961C63.4339 126.482 64.0979 126.033 64.857 125.911C65.9375 125.739 67.034 126.274 67.8045 127.051ZM164.875 133.486C165.143 133.83 165.34 134.248 165.328 134.683C165.313 135.246 164.957 135.739 164.573 136.15C162.341 138.541 158.912 139.355 155.664 139.739C155.45 139.764 155.225 139.787 155.024 139.709C154.859 139.644 154.727 139.517 154.609 139.385C153.826 138.503 153.515 137.271 153.579 136.094C153.642 134.916 154.049 133.782 154.555 132.717C154.661 132.493 154.785 132.257 155.002 132.137C155.175 132.041 155.382 132.033 155.58 132.028L159.511 131.925C160.479 131.899 161.458 131.875 162.405 132.075C163.352 132.274 164.28 132.722 164.875 133.486ZM121.065 96.3438C119.463 93.376 118.265 90.1908 117.513 86.9031L118.16 85.1747C118.961 83.6248 119.97 82.1829 121.152 80.8999C121.634 80.3774 122.468 80.3197 123.132 80.5714C123.797 80.8232 124.331 81.3238 124.847 81.8124L127.168 84.0112C127.237 84.0765 127.309 84.1471 127.332 84.2394C127.375 84.413 127.232 84.572 127.102 84.6953C126.015 85.7286 125.05 86.8936 124.275 88.1779C123.105 90.119 122.39 92.2944 121.685 94.4486L121.065 96.3438ZM126.997 79.6751C131.722 77.1443 136.891 74.7628 142.221 75.3323C145.007 75.63 147.673 76.7386 149.994 78.309C143.345 76.5998 135.933 78.1764 130.555 82.4439C129.724 83.1035 128.477 83.8199 127.737 83.0594C127.547 82.8642 127.422 82.5906 127.301 82.3241C127.107 81.8972 126.922 81.4883 126.487 81.4483C126.073 81.4102 125.889 80.8479 126.064 80.4707C126.24 80.0935 126.63 79.8716 126.997 79.6751ZM114.016 125.965C114.948 126.861 115.975 127.652 117 128.442L121.14 131.63C119.865 132.754 118.618 133.908 117.399 135.093C114.499 133.374 111.91 131.131 109.795 128.505C110.953 127.299 112.064 126.049 113.126 124.758C113.292 125.234 113.652 125.615 114.016 125.965ZM87.397 117.341C85.2172 119.044 82.9635 120.836 81.7645 123.329C81.5302 123.816 81.3367 124.329 81.1434 124.841C80.7327 125.929 80.3232 127.013 79.5268 127.841C79.1738 127.737 79.0349 127.321 78.9489 126.963L78.1194 123.513C78.0075 123.048 77.8948 122.569 77.9584 122.095C78.0217 121.622 78.2546 121.192 78.4834 120.774L80.9171 116.326C80.9714 116.227 81.0276 116.126 81.1146 116.053C81.3299 115.874 81.6485 115.931 81.9203 115.998L87.397 117.341ZM122.81 132.619C124.296 134.148 126.144 135.323 128.158 136.021C128.535 135.666 129.263 135.862 129.412 136.357C128.719 137.257 127.957 138.104 127.137 138.889C126.771 139.24 126.184 139.166 125.69 139.052C123.275 138.498 120.95 137.559 118.828 136.281C118.686 136.196 118.526 136.074 118.54 135.909C118.549 135.798 118.637 135.712 118.719 135.636L121.698 132.892C122.011 132.605 122.514 132.315 122.81 132.619ZM160.851 94.2848C160.823 94.6211 160.776 94.9963 160.513 95.2078C160.511 92.5665 159.856 89.9281 158.622 87.5925C158.398 87.1688 158.156 86.7548 157.886 86.3589C157.852 86.308 157.816 86.2571 157.781 86.2061L157.781 86.206L157.781 86.206L157.781 86.2059C157.509 85.8131 157.23 85.4111 157.164 84.942L160.357 88.2772C160.65 88.5841 160.953 88.9042 161.091 89.3057C161.225 89.6928 161.193 90.1151 161.16 90.5234L160.851 94.2848ZM157.182 90.0464L156.459 89.1351C155.664 88.1325 154.688 87.0377 153.408 87.0363C152.665 87.0355 151.982 87.4158 151.338 87.7853L150.337 88.3594C150.063 88.5162 149.782 88.6793 149.589 88.9288C149.033 89.6481 149.439 90.699 149.965 91.4409C150.328 91.9543 150.764 92.4472 151.343 92.6943C152.091 93.0139 152.952 92.8725 153.736 92.6561C154.811 92.3599 155.849 91.9325 156.82 91.3864C157.131 91.2118 157.474 90.956 157.458 90.6C157.449 90.3904 157.313 90.2108 157.182 90.0464ZM150.866 90.7499C150.741 90.5518 150.613 90.3402 150.611 90.1063C150.607 89.6489 151.063 89.342 151.465 89.1229L152.892 88.3446C153.107 88.2269 153.332 88.1065 153.577 88.09C153.823 88.0735 154.095 88.1916 154.178 88.4231C154.421 89.1064 155.021 89.6515 155.724 89.8288C155.952 89.8862 156.025 90.2014 155.917 90.4101C155.81 90.6188 155.589 90.7408 155.379 90.8452C154.627 91.2184 153.84 91.5227 153.033 91.7531C152.709 91.8455 152.367 91.9263 152.039 91.8484C151.504 91.7211 151.159 91.216 150.866 90.7499ZM140.714 97.7947C139.299 97.9595 139.03 100.511 139.687 101.872C139.822 102.152 140.034 102.441 140.342 102.48C140.87 102.547 141.161 101.896 141.278 101.377L141.281 101.365C141.434 100.682 142.121 97.6309 140.714 97.7947ZM133.415 101.142C133.698 100.482 133.793 99.7424 133.684 99.0323C133.634 98.7024 133.535 98.3675 133.314 98.1169C133.094 97.8664 132.73 97.7207 132.416 97.8337C132.131 97.9359 131.953 98.2139 131.818 98.4843C131.343 99.4389 131.154 100.533 131.281 101.592C131.34 102.085 131.96 102.354 132.431 102.198C132.902 102.042 133.22 101.598 133.415 101.142ZM137.587 99.6316C137.807 99.4495 138.084 99.7802 138.173 100.051C138.466 100.942 138.709 101.849 138.9 102.768C139.02 103.348 139.12 103.951 138.991 104.529C138.81 105.345 138.19 106.008 137.471 106.433C136.752 106.858 135.933 107.078 135.125 107.294C134.912 107.35 134.644 107.391 134.506 107.219C134.389 107.072 134.447 106.843 134.58 106.711C134.711 106.582 134.892 106.522 135.067 106.465L135.078 106.461C136.336 106.048 137.681 105.302 137.974 104.01C138.135 103.299 137.939 102.586 137.742 101.869C137.563 101.217 137.383 100.561 137.472 99.9039C137.485 99.8038 137.51 99.696 137.587 99.6316ZM128.799 96.7257C128.467 96.2667 128.733 95.5691 129.213 95.2697C129.694 94.9703 130.301 94.9744 130.863 95.0469C131.533 95.1334 132.192 95.3039 132.821 95.5532C132.954 95.6062 133.098 95.6738 133.157 95.805C133.266 96.0482 132.984 96.3144 132.718 96.3142C132.503 96.314 132.309 96.2108 132.117 96.1087C132.07 96.084 132.024 96.0593 131.977 96.0362C130.928 95.5158 129.537 95.8174 128.799 96.7257ZM140.887 96.5676C141.385 96.4847 141.914 96.5998 142.333 96.8824C142.508 97.0005 142.758 96.8018 142.759 96.5906C142.76 96.3794 142.603 96.2018 142.437 96.0712C142.079 95.7899 141.634 95.6216 141.18 95.5959C140.887 95.5794 140.562 95.636 140.374 95.8609C140.185 96.0857 140.242 96.5077 140.525 96.586C140.626 96.6139 140.732 96.595 140.836 96.5765L140.852 96.5735L140.887 96.5676ZM134.701 109.518C134.841 109.439 135.026 109.577 135.047 109.737C135.068 109.897 134.977 110.049 134.873 110.172C134.35 110.789 133.45 110.979 132.654 110.834C131.859 110.69 131.146 110.262 130.475 109.811C130.16 109.599 129.849 109.38 129.543 109.154C129.226 108.92 128.888 108.633 128.851 108.241C128.813 107.849 129.315 107.454 129.602 107.724C130.307 108.388 131.028 109.063 131.905 109.474C132.782 109.884 133.857 109.994 134.701 109.518ZM119.603 112.662C116.666 106.277 115.44 99.1133 116.088 92.1144C116.099 91.9948 116.114 91.8667 116.193 91.7763C116.305 91.6487 116.533 91.654 116.639 91.7867C116.601 95.6367 116.565 99.5099 117.194 103.309C117.822 107.107 119.157 110.865 121.593 113.846C121.666 113.935 121.739 114.024 121.813 114.112L121.814 114.113C122.233 114.615 122.656 115.122 122.893 115.728C121.309 115.698 120.266 114.102 119.603 112.662ZM122.485 83.8277C122.43 83.7689 122.367 83.7171 122.294 83.6854C122.082 83.5939 121.833 83.6877 121.648 83.825C120.908 84.3723 120.906 85.6522 121.643 86.2029C122.002 85.8966 122.371 85.5784 122.582 85.1557C122.792 84.733 122.805 84.1745 122.485 83.8277ZM128.86 90.571C129.657 91.2179 130.565 91.7274 131.533 92.0704C134.655 93.1774 138.163 92.4824 141.176 91.1054C141.636 90.8951 142.223 91.006 142.575 91.3697C140.641 92.7481 138.271 93.5058 135.896 93.5052C135.372 93.5051 134.849 93.4692 134.327 93.4236C133.259 93.3304 132.183 93.1936 131.179 92.8196C130.175 92.4457 129.237 91.8131 128.668 90.9046L128.86 90.571ZM162.856 132.645C162.825 132.752 162.91 132.853 162.989 132.931L164.175 134.109C164.304 133.77 164.159 133.376 163.91 133.112C163.662 132.849 163.326 132.689 162.998 132.534C162.934 132.537 162.874 132.584 162.856 132.645Z" fill="#00160A"/>
<path fill-rule="evenodd" clip-rule="evenodd" d="M291.519 91.6038C295.069 92.8342 298.413 89.6326 301.473 87.4514C306.206 84.0764 312.382 82.8002 318.065 84.0224C319.008 84.2252 319.996 84.5295 320.617 85.2674C321.185 85.9422 321.346 86.8626 321.438 87.7397C321.997 93.1089 320.655 98.6571 317.702 103.176C316.266 105.375 314.466 107.333 313.182 109.623C311.897 111.914 311.164 114.712 312.079 117.174C317.519 131.809 315.255 149.071 306.224 161.808C297.193 174.544 281.652 182.393 266.041 182.101C258.057 181.951 250.236 179.821 242.714 177.141C239.432 175.972 235.824 174.689 232.566 175.923C226.621 178.176 220.363 179.599 214.029 180.137C212.457 180.271 210.814 180.339 209.364 179.719C207.193 178.79 205.882 176.436 205.633 174.087C205.384 171.739 206.033 169.389 206.853 167.174C209.327 160.494 217.006 150.059 221.654 147.655C221.278 139.543 221.319 131.337 223.073 123.408C224.827 115.479 228.406 107.785 234.277 102.175C236.702 99.8577 239.477 97.9291 242.384 96.2554C257.086 87.7906 275.49 86.0483 291.519 91.6038ZM269.13 90.9452C257.887 91.2083 246.943 95.7245 238.155 102.741C235.574 104.801 233.149 107.089 231.212 109.763C229.685 111.872 228.478 114.198 227.469 116.597C221.483 130.834 222.85 147.94 231.02 161.046C231.198 161.332 231.403 161.635 231.721 161.746C232.113 161.883 232.535 161.683 232.902 161.488C258.563 147.813 281.404 128.873 299.594 106.186C300.027 105.646 300.483 105.018 300.389 104.332C300.319 103.818 299.952 103.4 299.593 103.024C291.832 94.8857 280.372 90.682 269.13 90.9452ZM284.848 175.937C297.036 170.215 306.294 158.907 310.253 146.037C311.149 143.123 311.794 140.11 311.857 137.062C311.91 134.498 311.552 131.946 311.196 129.407C310.678 125.726 310.161 122.045 309.644 118.363C309.507 117.387 308.566 116.099 307.879 116.806C288.809 136.432 267.984 154.353 245.736 170.286C244.995 170.816 244.18 171.472 244.141 172.382C244.094 173.435 245.099 174.198 246.012 174.725C257.677 181.451 272.659 181.659 284.848 175.937ZM209.665 174.438C210.552 175.86 212.474 176.152 214.15 176.198C222.939 176.441 231.635 173.866 239.499 169.932C247.363 165.999 254.48 160.737 261.397 155.308C270.622 148.068 279.572 140.479 288.294 132.64C299.097 122.931 309.711 112.633 316.803 99.958C318.175 97.5063 319.441 94.8179 319.227 92.0166C319.012 89.2153 316.778 86.3872 313.97 86.4967C308.013 86.7291 302.155 89.0197 297.621 92.8901C296.719 93.6598 297.356 95.2984 298.466 95.715C299.576 96.1317 300.813 95.7177 301.898 95.2389C302.983 94.7601 304.112 94.2002 305.291 94.3312C307.091 94.5314 308.369 96.3744 308.477 98.1825C308.584 99.9907 307.784 101.729 306.842 103.276C305.099 106.139 302.822 108.634 300.521 111.072C280.067 132.741 256.473 151.441 230.705 166.404C228.384 167.752 226.037 169.074 223.539 170.055C222.229 170.57 220.727 170.984 219.449 170.395C217.353 169.429 217.185 166.486 217.814 164.266C218.758 160.931 220.798 157.917 223.543 155.802C223.023 154.337 222.503 152.873 221.983 151.408C215.208 155.736 210.453 163.097 209.294 171.052C209.127 172.2 209.052 173.454 209.665 174.438ZM228.93 164.387C228.978 164.236 228.89 164.078 228.806 163.944C227.93 162.554 227.055 161.163 226.18 159.772C225.784 159.143 225.018 158.43 224.424 158.877C222.285 160.489 220.753 162.889 220.193 165.508C220.082 166.025 220.018 166.602 220.299 167.049C220.823 167.882 222.074 167.696 223 167.364C224.973 166.657 226.874 165.748 228.663 164.656C228.773 164.588 228.891 164.51 228.93 164.387ZM305.071 98.1867C304.983 97.8255 304.553 97.6685 304.182 97.6523C303.054 97.6032 301.876 98.5303 301.947 99.6568C302.018 100.783 303.693 101.493 304.393 100.607C304.604 100.34 304.693 99.9986 304.777 99.6684C304.861 99.3412 304.944 99.014 305.028 98.6869C305.069 98.523 305.111 98.3511 305.071 98.1867Z" fill="#00160A"/>
</svg>
