<svg width="56" height="56" viewBox="0 0 56 56" fill="none" xmlns="http://www.w3.org/2000/svg">
<circle cx="28" cy="28" r="27" fill="black" stroke="#EE58B6" stroke-width="2"/>
<mask id="path-2-inside-1_5940_186" fill="white">
<path fill-rule="evenodd" clip-rule="evenodd" d="M49.1182 46.386C53.4043 41.4671 56 35.0367 56 28C56 12.536 43.464 0 28 0C12.536 0 0 12.536 0 28C0 35.4477 2.90779 42.2163 7.65002 47.2323C9.99922 37.9048 18.4433 31 28.5 31C38.2501 31 46.4843 37.4902 49.1182 46.386Z"/>
</mask>
<path fill-rule="evenodd" clip-rule="evenodd" d="M49.1182 46.386C53.4043 41.4671 56 35.0367 56 28C56 12.536 43.464 0 28 0C12.536 0 0 12.536 0 28C0 35.4477 2.90779 42.2163 7.65002 47.2323C9.99922 37.9048 18.4433 31 28.5 31C38.2501 31 46.4843 37.4902 49.1182 46.386Z" fill="black"/>
<path d="M49.1182 46.386L47.2005 46.9538L48.2342 50.4449L50.6261 47.6999L49.1182 46.386ZM7.65002 47.2323L6.19669 48.6063L8.69964 51.2538L9.58945 47.7208L7.65002 47.2323ZM54 28C54 34.5355 51.5913 40.5034 47.6103 45.0721L50.6261 47.6999C55.2174 42.4307 58 35.5378 58 28H54ZM28 2C42.3594 2 54 13.6406 54 28H58C58 11.4315 44.5685 -2 28 -2V2ZM2 28C2 13.6406 13.6406 2 28 2V-2C11.4315 -2 -2 11.4315 -2 28H2ZM9.10334 45.8583C4.69817 41.1988 2 34.9167 2 28H-2C-2 35.9788 1.11741 43.2337 6.19669 48.6063L9.10334 45.8583ZM9.58945 47.7208C11.7202 39.2607 19.3815 33 28.5 33V29C17.505 29 8.27824 36.549 5.71059 46.7439L9.58945 47.7208ZM28.5 33C37.3402 33 44.8112 38.8841 47.2005 46.9538L51.0359 45.8182C48.1574 36.0962 39.16 29 28.5 29V33Z" fill="#EE58B6" mask="url(#path-2-inside-1_5940_186)"/>
<circle cx="28" cy="23" r="11" fill="black" stroke="#EE58B6" stroke-width="2"/>
</svg>
