<svg width="16" height="16" viewBox="0 0 16 16" fill="none" xmlns="http://www.w3.org/2000/svg">
<path d="M15.0711 1.07107C15.4007 1.40073 15.3691 1.97574 15.0155 2.40362L14.9282 2.49957L9.28565 8.14214L14.9282 13.7847C15.3621 14.2186 15.4261 14.8582 15.0711 15.2132C14.7414 15.5429 14.1664 15.5113 13.7385 15.1577L13.6426 15.0704L8 9.42778L2.35743 15.0704C1.92351 15.5043 1.28395 15.5682 0.928932 15.2132C0.599269 14.8835 0.630867 14.3085 0.984481 13.8807L1.07178 13.7847L6.71435 8.14214L1.07178 2.49957C0.637866 2.06565 0.57391 1.42609 0.928932 1.07107C1.2586 0.741405 1.8336 0.773003 2.26148 1.12662L2.35743 1.21392L8 6.85649L13.6426 1.21392C14.0765 0.780002 14.716 0.716046 15.0711 1.07107Z" fill="black"/>
</svg>
