<svg width="50" height="51" viewBox="0 0 50 51" fill="none" xmlns="http://www.w3.org/2000/svg">
<path d="M24.8838 5.1731C13.7899 5.1731 4.76465 14.1989 4.76465 25.2923C4.76465 36.3856 13.7905 45.4115 24.8838 45.4115C35.9778 45.4115 45.0036 36.3856 45.0036 25.2923C45.0036 14.1989 35.9778 5.1731 24.8838 5.1731ZM24.8838 43.2549C14.9791 43.2549 6.92066 35.197 6.92066 25.2923C6.92066 15.3875 14.9791 7.32911 24.8838 7.32911C34.7886 7.32911 42.8464 15.3875 42.8464 25.2923C42.8464 35.197 34.7886 43.2549 24.8838 43.2549Z" fill="#EE58B6"/>
<path d="M29.9678 22.0237L25.6283 26.3632V10.928C25.6283 10.3325 25.1452 9.84998 24.5497 9.84998C23.9542 9.84998 23.4717 10.3325 23.4717 10.928V28.9659C23.4717 29.037 23.4789 29.1082 23.4932 29.1781C23.4992 29.2086 23.5105 29.2367 23.5195 29.2666C23.5303 29.3043 23.5392 29.3426 23.5548 29.3796C23.5697 29.4155 23.5901 29.4478 23.6086 29.4819C23.6235 29.51 23.6361 29.5387 23.654 29.5656C23.733 29.684 23.8352 29.7856 23.9536 29.8651C23.9757 29.8801 23.9996 29.8896 24.0223 29.9022C24.0606 29.9237 24.0977 29.9464 24.1389 29.9638C24.1712 29.9769 24.2053 29.9847 24.2382 29.9949C24.2723 30.005 24.3045 30.0182 24.3398 30.0248C24.4092 30.0385 24.4797 30.0463 24.5503 30.0463C24.6208 30.0463 24.6914 30.0391 24.7607 30.0248C24.796 30.0176 24.8289 30.005 24.863 29.9943C24.8959 29.9841 24.9293 29.9769 24.9616 29.9638C25.0035 29.9464 25.0418 29.9231 25.0806 29.901C25.1027 29.8884 25.1255 29.8795 25.147 29.8651C25.2074 29.8251 25.2636 29.7796 25.3138 29.7282L31.493 23.549C31.914 23.128 31.914 22.4452 31.493 22.0243C31.0715 21.6022 30.3893 21.6022 29.9678 22.0237Z" fill="#EE58B6"/>
<path d="M24.8845 0.407349C11.1628 0.407349 -0.000488281 11.5707 -0.000488281 25.293C-0.000488281 39.0153 11.1628 50.178 24.8845 50.178C38.6062 50.178 49.7701 39.0147 49.7701 25.293C49.7701 11.5713 38.6062 0.407349 24.8845 0.407349ZM24.8845 48.0208C12.352 48.0208 2.15552 37.8248 2.15552 25.2924C2.15552 12.7599 12.3514 2.56336 24.8845 2.56336C37.4176 2.56336 47.6129 12.7599 47.6129 25.2924C47.6129 37.8248 37.417 48.0208 24.8845 48.0208Z" fill="#EE58B6"/>
</svg>
